<svg width="31" height="31" viewBox="0 0 31 31" fill="none" xmlns="http://www.w3.org/2000/svg">
<g clip-path="url(#clip0_1_9324)">
<path d="M21.665 0.0155136C21.5991 -0.0581114 19.2257 0.0445761 17.1603 2.28626C15.0949 4.52601 15.4127 7.09514 15.4592 7.16101C15.5057 7.22689 18.4042 7.32958 20.2545 4.72364C22.1048 2.1177 21.7309 0.0910761 21.665 0.0155136ZM28.0859 22.7482C27.9929 22.5622 23.5812 20.3573 23.9919 16.1181C24.4027 11.8788 27.2372 10.7144 27.2818 10.5885C27.3264 10.4625 26.1251 9.05783 24.8522 8.34676C23.9174 7.84592 22.8831 7.55873 21.8239 7.50589C21.6146 7.50008 20.888 7.32183 19.3942 7.73064C18.41 7.99995 16.1915 8.87183 15.5812 8.9067C14.969 8.94158 13.1477 7.89533 11.1889 7.61826C9.93536 7.37608 8.60623 7.87208 7.65492 8.25376C6.70554 8.63351 4.89979 9.71464 3.63654 12.588C2.37329 15.4593 3.03398 20.0086 3.50673 21.423C3.97948 22.8373 4.71767 25.1507 5.97317 26.8402C7.08917 28.7467 8.56942 30.07 9.18748 30.5195C9.80554 30.969 11.5493 31.2674 12.7583 30.6493C13.7309 30.0526 15.4863 29.7096 16.1799 29.7348C16.8716 29.76 18.2356 30.0332 19.6325 30.7791C20.7389 31.1608 21.7851 31.002 22.8333 30.5757C23.8815 30.1475 25.3985 28.5239 27.1694 25.2321C27.8411 23.7015 28.1466 22.8735 28.0859 22.7482Z" fill="white"/>
</g>
<defs>
<clipPath id="clip0_1_9324">
<rect width="31" height="31" fill="white"/>
</clipPath>
</defs>
</svg>
