<svg width="31" height="31" viewBox="0 0 31 31" fill="none" xmlns="http://www.w3.org/2000/svg">
<g clip-path="url(#clip0_1_9310)">
<path d="M30.6774 15.5003C30.6774 7.11825 23.8824 0.323242 15.5003 0.323242C7.11825 0.323242 0.323242 7.11825 0.323242 15.5003C0.323242 23.0757 5.87328 29.3545 13.1289 30.493V19.8874H9.27536V15.5003H13.1289V12.1566C13.1289 8.35286 15.3947 6.2518 18.8615 6.2518C20.522 6.2518 22.2589 6.5482 22.2589 6.5482V10.2832H20.3451C18.4597 10.2832 17.8718 11.4531 17.8718 12.6534V15.5003H22.081L21.4081 19.8874H17.8718V30.493C25.1274 29.3545 30.6774 23.0757 30.6774 15.5003Z" fill="#1877F2"/>
<path d="M21.4081 19.8876L22.081 15.5005H17.8718V12.6535C17.8718 11.4533 18.4597 10.2834 20.3451 10.2834H22.2589V6.54836C22.2589 6.54836 20.522 6.25195 18.8615 6.25195C15.3948 6.25195 13.1289 8.35301 13.1289 12.1568V15.5005H9.27539V19.8876H13.1289V30.4932C13.9016 30.6144 14.6936 30.6776 15.5004 30.6776C16.3071 30.6776 17.0991 30.6144 17.8718 30.4932V19.8876H21.4081Z" fill="white"/>
</g>
<defs>
<clipPath id="clip0_1_9310">
<rect width="31" height="31" fill="white"/>
</clipPath>
</defs>
</svg>
