<svg width="31" height="31" viewBox="0 0 31 31" fill="none" xmlns="http://www.w3.org/2000/svg">
<path d="M31.0001 15.8447C31.0001 14.5702 30.8946 13.6402 30.6662 12.6758H15.8164V18.428H24.5329C24.3572 19.8575 23.4083 22.0103 21.2994 23.4569L21.2698 23.6494L25.965 27.214L26.2903 27.2459C29.2778 24.5419 31.0001 20.5635 31.0001 15.8447Z" fill="#00AEFF"/>
<path d="M15.8158 30.9999C20.0862 30.9999 23.6712 29.6221 26.2898 27.2455L21.2988 23.4565C19.9632 24.3693 18.1707 25.0065 15.8158 25.0065C11.6333 25.0065 8.08346 22.3027 6.81803 18.5654L6.63254 18.5809L1.75037 22.2837L1.68652 22.4576C4.28741 27.5209 9.62984 30.9999 15.8158 30.9999Z" fill="#35FFA7"/>
<path d="M6.81854 18.5657C6.48464 17.6012 6.29141 16.5678 6.29141 15.5001C6.29141 14.4322 6.48464 13.3989 6.80097 12.4345L6.79213 12.2291L1.84878 8.4668L1.68704 8.54219C0.615087 10.6433 0 13.0028 0 15.5001C0 17.9973 0.615087 20.3567 1.68704 22.4578L6.81854 18.5657Z" fill="#FBF305"/>
<path d="M15.8158 5.99333C18.7858 5.99333 20.7891 7.25055 21.9315 8.30118L26.3952 4.03002C23.6537 1.53279 20.0862 0 15.8158 0C9.62983 0 4.28741 3.47888 1.68652 8.5422L6.80046 12.4345C8.08345 8.69726 11.6333 5.99333 15.8158 5.99333Z" fill="#FF286C"/>
</svg>
