<svg width="1920" height="1144" viewBox="0 0 1920 1144" fill="none" xmlns="http://www.w3.org/2000/svg">
<g opacity="0.6" filter="url(#filter0_f_3203_44894)">
<ellipse cx="372.209" cy="117.481" rx="372.209" ry="117.481" transform="matrix(-0.996521 0.0833388 -0.651388 -0.758745 364.429 958.319)" fill="#7D52F4"/>
<ellipse cx="602.601" cy="117.481" rx="602.601" ry="117.481" transform="matrix(-0.996521 0.0833388 -0.651388 -0.758745 751.327 1235.68)" fill="#D8B7E6"/>
<ellipse cx="372.209" cy="117.481" rx="372.209" ry="117.481" transform="matrix(-0.996521 0.0833388 -0.651388 -0.758745 794.485 822.358)" fill="#8273BE"/>
<ellipse cx="317.818" cy="130.273" rx="317.818" ry="130.273" transform="matrix(-1.03014 0.0423715 -0.315807 -0.74793 437.071 689.472)" fill="#812FF3" fill-opacity="0.26"/>
</g>
<g opacity="0.6" filter="url(#filter1_f_3203_44894)">
<ellipse cx="490.064" cy="197.757" rx="490.064" ry="197.757" transform="matrix(-0.996521 0.0833388 -0.651388 -0.758745 2257.49 963.958)" fill="#52F4E7"/>
<ellipse cx="460.022" cy="145.198" rx="460.022" ry="145.198" transform="matrix(-0.996521 0.0833388 -0.651388 -0.758745 2434.63 1362.81)" fill="#2FF3CF"/>
<ellipse cx="460.022" cy="145.198" rx="460.022" ry="145.198" transform="matrix(-0.996521 0.0833388 -0.651388 -0.758745 2729.13 800.928)" fill="#7470F1" fill-opacity="0.03"/>
<ellipse cx="452.786" cy="138.41" rx="452.786" ry="138.41" transform="matrix(-1.03014 0.0423715 -0.315807 -0.74793 2287.37 589.638)" fill="#2F3FF3" fill-opacity="0.26"/>
</g>
<g opacity="0.6" filter="url(#filter2_f_3203_44894)">
<ellipse cx="406.404" cy="128.274" rx="406.404" ry="128.274" transform="matrix(-0.996521 0.0833388 -0.651388 -0.758745 1314.3 962.457)" fill="#5C31F4"/>
<ellipse cx="406.404" cy="128.274" rx="406.404" ry="128.274" transform="matrix(-0.996521 0.0833388 -0.651388 -0.758745 1523.7 1310.39)" fill="#2F46F3"/>
<ellipse cx="406.404" cy="128.274" rx="406.404" ry="128.274" transform="matrix(-0.996521 0.0833388 -0.651388 -0.758745 1783.86 814.004)" fill="#8A70F1" fill-opacity="0.03"/>
<ellipse cx="282.568" cy="122.277" rx="282.568" ry="122.277" transform="matrix(-1.03014 0.0423715 -0.315807 -0.74793 1393.6 668.909)" fill="#2F3FF3" fill-opacity="0.26"/>
</g>
<defs>
<filter id="filter0_f_3203_44894" x="-931.13" y="107.131" width="2056.98" height="1591.96" filterUnits="userSpaceOnUse" color-interpolation-filters="sRGB">
<feFlood flood-opacity="0" result="BackgroundImageFix"/>
<feBlend mode="normal" in="SourceGraphic" in2="BackgroundImageFix" result="shape"/>
<feGaussianBlur stdDeviation="200" result="effect1_foregroundBlur_3203_44894"/>
</filter>
<filter id="filter1_f_3203_44894" x="735.126" y="0" width="2309.17" height="1807.66" filterUnits="userSpaceOnUse" color-interpolation-filters="sRGB">
<feFlood flood-opacity="0" result="BackgroundImageFix"/>
<feBlend mode="normal" in="SourceGraphic" in2="BackgroundImageFix" result="shape"/>
<feGaussianBlur stdDeviation="200" result="effect1_foregroundBlur_3203_44894"/>
</filter>
<filter id="filter2_f_3203_44894" x="12.1494" y="97.1816" width="2096.77" height="1652.83" filterUnits="userSpaceOnUse" color-interpolation-filters="sRGB">
<feFlood flood-opacity="0" result="BackgroundImageFix"/>
<feBlend mode="normal" in="SourceGraphic" in2="BackgroundImageFix" result="shape"/>
<feGaussianBlur stdDeviation="200" result="effect1_foregroundBlur_3203_44894"/>
</filter>
</defs>
</svg>
