<svg width="103" height="21" viewBox="0 0 103 21" fill="none" xmlns="http://www.w3.org/2000/svg">
<path d="M10.9219 20.5801H0.00187504V7.9155e-05H2.34187V18.2401H10.9219V20.5801ZM21.7997 20.5801H19.4597V19.0501C18.2997 20.0701 17.1697 20.5801 16.0697 20.5801C14.7097 20.5801 13.5297 19.9001 12.5297 18.5401C11.5497 17.1801 11.0597 15.4001 11.0597 13.2001V5.82008H13.3997V13.2001C13.3997 14.7001 13.7097 15.8301 14.3297 16.5901C14.9697 17.3301 15.6697 17.7001 16.4297 17.7001C17.1897 17.7001 17.8797 17.3301 18.4997 16.5901C19.1397 15.8301 19.4597 14.7001 19.4597 13.2001V5.82008H21.7997V20.5801ZM42.2559 20.5801H39.9159V13.2001C39.9159 11.7001 39.6659 10.5801 39.1659 9.84008C38.6659 9.08008 38.1059 8.70008 37.4859 8.70008C36.7459 8.70008 36.2059 9.02008 35.8659 9.66008C35.5259 10.2801 35.3059 11.0001 35.2059 11.8201C35.1259 12.6201 35.0859 13.2901 35.0859 13.8301V20.5801H32.8059C32.8059 19.3001 32.8059 18.2201 32.8059 17.3401C32.8059 16.4401 32.8059 15.7001 32.8059 15.1201C32.8059 14.5401 32.8059 14.0901 32.8059 13.7701C32.8059 13.4301 32.7959 13.1701 32.7759 12.9901C32.7759 12.8101 32.7759 12.6801 32.7759 12.6001C32.7759 12.5001 32.7659 12.4001 32.7459 12.3001C32.7459 12.2801 32.7459 12.2601 32.7459 12.2401C32.6059 11.0601 32.3059 10.1801 31.8459 9.60008C31.4059 9.00008 30.9159 8.70008 30.3759 8.70008C29.7759 8.70008 29.2259 9.08008 28.7259 9.84008C28.2259 10.5801 27.9759 11.7001 27.9759 13.2001V20.5801H25.6359V5.85008H27.9759V7.38008C28.5559 6.84008 29.1159 6.45008 29.6559 6.21008C30.2159 5.97008 30.7359 5.85008 31.2159 5.85008C32.0159 5.85008 32.6859 6.10008 33.2259 6.60008C33.7859 7.08008 34.1459 7.67008 34.3059 8.37008C35.4259 6.77008 36.6759 5.97008 38.0559 5.97008C38.7759 5.97008 39.4559 6.22008 40.0959 6.72008C40.7359 7.22008 41.2559 8.00008 41.6559 9.06008C42.0559 10.1201 42.2559 11.5001 42.2559 13.2001V20.5801ZM47.9878 20.5801H45.6478V5.82008H47.9878V20.5801ZM47.9878 3.51008H45.6478V1.17008H47.9878V3.51008ZM58.4062 20.5801H56.0662V2.37008H50.3362V0.0300784H64.1663V2.37008H58.4062V20.5801ZM72.6122 20.5801H70.2722V19.0501C69.1122 20.0701 67.9822 20.5801 66.8822 20.5801C65.5222 20.5801 64.3422 19.9001 63.3422 18.5401C62.3622 17.1801 61.8722 15.4001 61.8722 13.2001V5.82008H64.2122V13.2001C64.2122 14.7001 64.5222 15.8301 65.1422 16.5901C65.7822 17.3301 66.4822 17.7001 67.2422 17.7001C68.0022 17.7001 68.6922 17.3301 69.3122 16.5901C69.9522 15.8301 70.2722 14.7001 70.2722 13.2001V5.82008H72.6122V20.5801ZM87.1884 20.5801H84.8484V13.2001C84.8484 11.7001 84.5284 10.5801 83.8884 9.84008C83.2684 9.08008 82.5784 8.70008 81.8184 8.70008C81.0584 8.70008 80.3584 9.08008 79.7184 9.84008C79.0984 10.5801 78.7884 11.7001 78.7884 13.2001V20.5801H76.4484V5.85008H78.7884V7.38008C79.9484 6.34008 81.0784 5.82008 82.1784 5.82008C83.5384 5.82008 84.7084 6.51008 85.6884 7.89008C86.6884 9.25008 87.1884 11.0201 87.1884 13.2001V20.5801ZM96.0272 20.7301C94.8872 20.7301 93.7872 20.4501 92.7272 19.8901C91.6872 19.3101 90.8372 18.4701 90.1772 17.3701C89.5172 16.2501 89.1872 14.8901 89.1872 13.2901C89.1872 11.7901 89.5072 10.4801 90.1472 9.36008C90.8072 8.22008 91.6572 7.34008 92.6972 6.72008C93.7372 6.08008 94.8472 5.76008 96.0272 5.76008C97.7472 5.76008 99.2872 6.45008 100.647 7.83008C102.027 9.19008 102.777 11.0001 102.897 13.2601H91.5272V13.3501C91.5272 14.4701 91.7372 15.4001 92.1572 16.1401C92.5972 16.8801 93.1572 17.4401 93.8372 17.8201C94.5372 18.2001 95.2572 18.3901 95.9972 18.3901C96.6372 18.3901 97.2572 18.2601 97.8572 18.0001C98.4572 17.7201 98.9872 17.3001 99.4472 16.7401L101.277 18.2101C100.577 19.0501 99.7672 19.6801 98.8472 20.1001C97.9472 20.5201 97.0072 20.7301 96.0272 20.7301ZM100.017 10.9201C99.5772 9.98008 98.9972 9.28008 98.2772 8.82008C97.5572 8.34008 96.8072 8.10008 96.0272 8.10008C95.2072 8.10008 94.4372 8.34008 93.7172 8.82008C92.9972 9.30008 92.4272 10.0001 92.0072 10.9201H100.017Z" fill="#40CCFF"/>
</svg>
