<svg width="26" height="22" viewBox="0 0 26 22" fill="none" xmlns="http://www.w3.org/2000/svg">
<path d="M20.3061 17.8492L19.5997 18.5561L4.7505 3.7069L5.45685 3L20.3061 17.8492Z" fill="#73BEFF"/>
<path d="M11.0674 9.02374C10.7885 9.36752 10.6211 9.80538 10.6211 10.2825C10.6211 11.3871 11.5165 12.2825 12.6211 12.2825C13.0982 12.2825 13.5351 12.1141 13.8789 11.8353L14.5879 12.5443C14.061 13.0028 13.3744 13.2825 12.6211 13.2825C10.9642 13.2825 9.62109 11.9394 9.62109 10.2825C9.62109 9.52919 9.89982 8.84162 10.3584 8.31476L11.0674 9.02374ZM12.6211 7.28253C14.2779 7.28253 15.6211 8.62568 15.6211 10.2825C15.6211 10.8236 15.4752 11.3296 15.2246 11.7679L14.4775 11.0208C14.5686 10.7921 14.6211 10.5437 14.6211 10.2825C14.6211 9.17796 13.7257 8.28253 12.6211 8.28253C12.3598 8.28253 12.1107 8.33396 11.8818 8.42511L11.1348 7.67804C11.5731 7.42734 12.0799 7.28253 12.6211 7.28253Z" fill="#73BEFF"/>
<path d="M8.11035 6.06681C6.06482 7.21718 4.37194 8.96528 3.24707 10.5688C7.2694 15.3489 11.2063 16.2698 14.4795 15.5785C15.2989 15.4055 16.0832 15.1286 16.8242 14.7807L17.5732 15.5297C16.6739 15.9822 15.7071 16.3413 14.6855 16.5571C11.0329 17.3283 6.80143 16.2496 2.63574 11.3959L2.23242 10.9145L2 10.6293L2.2041 10.3217C3.33347 8.62204 5.12976 6.66125 7.37695 5.33342L8.11035 6.06681ZM10.543 4.03459C12.4207 3.59394 14.4745 3.69086 16.6016 4.64689C18.722 5.59996 20.8875 7.3937 23.0234 10.3022L23.2412 10.599L23.0225 10.8949C21.9979 12.2828 20.4304 13.8556 18.4834 15.0268L17.751 14.2944C19.5188 13.2755 20.9837 11.8827 21.9912 10.5951C20.0038 7.96606 18.044 6.39169 16.1914 5.559C14.2759 4.69811 12.4478 4.61485 10.7715 5.00822C10.1787 5.14736 9.60356 5.3468 9.0498 5.59318L8.29688 4.84025C9.00925 4.49544 9.75983 4.21839 10.543 4.03459Z" fill="#73BEFF"/>
<path d="M13.9922 12.9485C13.5809 13.1605 13.1156 13.2825 12.6211 13.2825C10.9642 13.2825 9.62109 11.9394 9.62109 10.2825C9.62109 9.78787 9.74205 9.32181 9.9541 8.91046L13.9922 12.9485Z" fill="#73BEFF"/>
</svg>
